<?xml version="1.0" encoding="utf-8"?>
<!-- Generator: Adobe Illustrator 19.0.0, SVG Export Plug-In . SVG Version: 6.00 Build 0)  -->
<svg version="1.1" id="Шар_1" xmlns="http://www.w3.org/2000/svg" xmlns:xlink="http://www.w3.org/1999/xlink" x="0px" y="0px"
	 viewBox="-260 349 90.8 96" style="enable-background:new -260 349 90.8 96;" xml:space="preserve">
<style type="text/css">
	.st0{fill:#1B503E;}
	.st1{enable-background:new    ;}
</style>
<path class="st0" d="M-188.3,425.4c-0.3,0-0.6,0.3-0.6,0.6s0.3,0.6,0.6,0.6c0.3,0,0.6-0.3,0.6-0.6
	C-187.7,425.7-188,425.4-188.3,425.4z M-188.3,407.1c-10.5,0-18.9,8.6-18.9,19c0,10.5,8.6,18.9,19,18.9c10.4,0,18.9-8.5,18.9-19
	C-169.3,415.6-177.8,407.1-188.3,407.1z M-188.3,442.5c-9.1,0-16.4-7.4-16.4-16.5s7.4-16.4,16.5-16.4c9,0,16.4,7.4,16.4,16.4
	C-171.8,435.1-179.2,442.5-188.3,442.5z M-187,423.2v-5.7c0-0.7-0.6-1.3-1.3-1.2c-0.7,0-1.2,0.6-1.2,1.2v5.7
	c-0.7,0.3-1.2,0.9-1.6,1.6h-3.9c-0.7,0-1.3,0.6-1.3,1.3c0,0.7,0.6,1.3,1.3,1.3h3.9c0.7,1.6,2.5,2.3,4.1,1.6c1.6-0.7,2.3-2.5,1.6-4.1
	C-185.7,424-186.3,423.5-187,423.2z M-188.3,426.5c-0.3,0-0.6-0.3-0.6-0.6s0.3-0.6,0.6-0.6c0.3,0,0.6,0.3,0.6,0.6
	C-187.7,426.3-188,426.5-188.3,426.5L-188.3,426.5z M-188.3,414.4c0.7,0,1.3-0.6,1.3-1.3v-0.6c0-0.7-0.6-1.3-1.3-1.2
	c-0.7,0-1.2,0.6-1.2,1.2v0.6C-189.6,413.9-189,414.4-188.3,414.4C-188.3,414.4-188.3,414.4-188.3,414.4L-188.3,414.4z M-188.3,437.5
	c-0.7,0-1.3,0.6-1.3,1.3v0.6c0,0.7,0.6,1.3,1.3,1.2c0.7,0,1.2-0.6,1.2-1.2v-0.6C-187,438.1-187.6,437.5-188.3,437.5L-188.3,437.5z
	 M-174.8,424.7h-0.6c-0.7,0-1.3,0.6-1.3,1.3c0,0.7,0.6,1.3,1.3,1.3l0,0h0.6c0.7,0,1.3-0.6,1.3-1.3S-174.1,424.7-174.8,424.7
	L-174.8,424.7z M-201.2,424.7h-0.6c-0.7,0-1.3,0.6-1.3,1.3c0,0.7,0.6,1.3,1.3,1.3l0,0h0.6c0.7,0,1.3-0.6,1.3-1.3
	S-200.5,424.7-201.2,424.7L-201.2,424.7L-201.2,424.7z M-179.2,418.2c0.3,0,0.7-0.1,0.9-0.4l0.4-0.4c0.5-0.5,0.5-1.3,0-1.8
	c-0.5-0.5-1.3-0.5-1.8,0l0,0l-0.4,0.4c-0.5,0.5-0.5,1.3,0,1.8C-179.8,418-179.5,418.2-179.2,418.2L-179.2,418.2z M-198.3,434.1
	l-0.4,0.4c-0.5,0.5-0.5,1.3,0,1.8c0,0,0,0,0,0c0.5,0.5,1.3,0.5,1.8,0l0.4-0.4c0.5-0.5,0.5-1.3,0-1.8
	C-197,433.6-197.8,433.6-198.3,434.1L-198.3,434.1L-198.3,434.1z M-178.3,434.1c-0.2-0.2-0.6-0.4-0.9-0.4l0,0
	c-0.7,0-1.3,0.6-1.3,1.3c0,0.3,0.1,0.7,0.4,0.9l0.4,0.4c0.5,0.5,1.3,0.5,1.8,0c0.5-0.5,0.5-1.3,0-1.8c0,0,0,0,0,0L-178.3,434.1z
	 M-198.3,417.8c0.5,0.5,1.3,0.5,1.8,0s0.5-1.3,0-1.8l-0.4-0.4c-0.5-0.5-1.3-0.5-1.8,0s-0.5,1.3,0,1.8l0,0L-198.3,417.8z
	 M-209.2,426.1c0-0.4,0-0.8,0.1-1.2h-48.2v-53.6h68.3v34c0.3,0,0.6,0,0.9,0c0.6,0,1.1,0,1.7,0.1v-49.7c0-0.7-0.6-1.3-1.3-1.3
	c0,0,0,0,0,0h-9.2v-3.9c0-0.7-0.6-1.3-1.3-1.3c0,0,0,0,0,0h-9.2c-0.7,0-1.3,0.6-1.3,1.3c0,0,0,0,0,0v3.9h-28.9v-3.9
	c0-0.7-0.6-1.3-1.3-1.3c0,0,0,0,0,0h-9.2c-0.7,0-1.3,0.6-1.3,1.3c0,0,0,0,0,0v3.9h-9.2c-0.7,0-1.3,0.6-1.3,1.3c0,0,0,0,0,0v70.6
	c0,0.7,0.6,1.3,1.3,1.3c0,0,0,0,0,0h49.6C-209.2,427-209.2,426.5-209.2,426.1L-209.2,426.1z M-206.2,355.5v-3.9h6.6v7.8h-6.6V355.5z
	 M-246.9,355.5v-3.9h6.6v7.8h-6.6V355.5z M-257.4,356.8h7.9v3.9c0,0.7,0.6,1.3,1.3,1.3c0,0,0,0,0,0h9.2c0.7,0,1.3-0.6,1.3-1.3
	c0,0,0,0,0,0v-3.9h28.9v3.9c0,0.7,0.6,1.3,1.3,1.3c0,0,0,0,0,0h9.2c0.7,0,1.3-0.6,1.3-1.3c0,0,0,0,0,0v-3.9h7.9v11.8h-68.3
	L-257.4,356.8L-257.4,356.8z"/>
<g class="st1">
	<path class="st0" d="M-242.6,403.9h-3.4v-14h-3.5v-2.4l6.9-0.6V403.9z"/>
	<path class="st0" d="M-231.6,401.5c0.9,0,1.6-0.3,2.2-1c0.6-0.7,0.8-1.6,0.8-2.9v-0.8c-0.4,0.5-0.8,0.9-1.4,1.1s-1.1,0.4-1.7,0.4
		c-1.6,0-2.8-0.5-3.7-1.6s-1.4-2.4-1.4-4.2c0-1.7,0.5-3.1,1.6-4.2s2.4-1.7,4.1-1.7c1.7,0,3.2,0.6,4.2,1.8s1.6,2.9,1.6,5.1v4
		c0,2.1-0.6,3.7-1.8,4.9s-2.8,1.8-4.6,1.8c-0.6,0-1.2-0.1-1.8-0.2c-0.6-0.1-1.2-0.3-1.8-0.5l0.4-2.5c0.5,0.2,1,0.3,1.5,0.4
		S-232.3,401.5-231.6,401.5z M-231.1,395.8c0.6,0,1.1-0.1,1.5-0.3s0.8-0.5,1-0.8v-1.6c0-1.3-0.2-2.2-0.7-2.8s-1-1-1.8-1
		c-0.7,0-1.2,0.3-1.7,1s-0.7,1.4-0.7,2.3c0,1,0.2,1.8,0.6,2.3S-231.8,395.8-231.1,395.8z"/>
	<path class="st0" d="M-211.2,389.5c-1.8,2.1-3.1,4.1-3.7,6s-1.1,4.1-1.4,6.7l-0.2,1.7h-3.4l0.2-1.7c0.3-2.5,0.8-4.8,1.7-6.9
		s2.1-4,3.6-5.8h-8.8v-2.6h12.1V389.5z"/>
	<path class="st0" d="M-204.1,401.5c0.9,0,1.6-0.3,2.2-1c0.6-0.7,0.8-1.6,0.8-2.9v-0.8c-0.4,0.5-0.8,0.9-1.4,1.1s-1.1,0.4-1.7,0.4
		c-1.6,0-2.8-0.5-3.7-1.6s-1.4-2.4-1.4-4.2c0-1.7,0.5-3.1,1.6-4.2s2.4-1.7,4.1-1.7c1.7,0,3.2,0.6,4.2,1.8s1.6,2.9,1.6,5.1v4
		c0,2.1-0.6,3.7-1.8,4.9s-2.8,1.8-4.6,1.8c-0.6,0-1.2-0.1-1.8-0.2c-0.6-0.1-1.2-0.3-1.8-0.5l0.4-2.5c0.5,0.2,1,0.3,1.5,0.4
		S-204.7,401.5-204.1,401.5z M-203.5,395.8c0.6,0,1.1-0.1,1.5-0.3s0.8-0.5,1-0.8v-1.6c0-1.3-0.2-2.2-0.7-2.8s-1-1-1.8-1
		c-0.7,0-1.2,0.3-1.7,1s-0.7,1.4-0.7,2.3c0,1,0.2,1.8,0.6,2.3S-204.3,395.8-203.5,395.8z"/>
</g>
</svg>
