<svg xmlns="http://www.w3.org/2000/svg" width="91.03" height="97.156" viewBox="0 0 91.03 97.156">
  <defs>
    <style>
      .cls-1 {
        fill: #1b503e;
        fill-rule: evenodd;
      }
    </style>
  </defs>
  <path class="cls-1" d="M1193.7,921.862l0.07-.044-1.84-1.128c-0.11-.066-0.22-0.122-0.33-0.188-0.6-.362-1.22-0.709-1.84-1.042-0.31-.169-0.63-0.328-0.95-0.488-0.47-.237-0.94-0.462-1.42-0.68-0.28-.129-0.56-0.261-0.84-0.382-0.75-.319-1.5-0.62-2.26-0.9-0.16-.057-0.32-0.105-0.48-0.161-0.66-.232-1.34-0.447-2.02-0.647-0.22-.063-0.44-0.126-0.66-0.185-0.75-.207-1.51-0.4-2.29-0.561-0.07-.015-0.14-0.035-0.21-0.05-0.86-.178-1.72-0.325-2.59-0.449-0.19-.028-0.39-0.049-0.58-0.074-0.68-.087-1.37-0.159-2.06-0.213-0.23-.018-0.46-0.038-0.7-0.052-0.86-.058-1.73-0.094-2.61-0.094-0.94,0-1.88.043-2.81,0.105-0.25.016-.49,0.034-0.74,0.055-0.87.073-1.74,0.168-2.6,0.3l-0.26.036c-0.34.053-.67,0.13-1.01,0.193,0.18,0.9.32,1.814,0.41,2.734,0.41-.077.83-0.165,1.25-0.228,0.18-.026.36-0.044,0.54-0.069,0.66-.089,1.33-0.16,2-0.216,0.24-.019.47-0.039,0.7-0.054,0.84-.049,1.68-0.087,2.52-0.087,0.74,0,1.47.025,2.2,0.066,0.21,0.011.42,0.032,0.62,0.048,0.53,0.038,1.06.083,1.58,0.142,0.23,0.026.46,0.058,0.69,0.088,0.51,0.067,1.01.141,1.52,0.228,0.22,0.039.44,0.078,0.66,0.119,0.53,0.1,1.05.212,1.56,0.332,0.2,0.045.39,0.086,0.58,0.133,0.64,0.159,1.27.333,1.9,0.524,0.06,0.019.13,0.034,0.19,0.054,0.68,0.207,1.34.437,2,.679,0.26,0.1.52,0.2,0.78,0.308,0.38,0.151.76,0.3,1.14,0.467,0.33,0.143.66,0.289,0.98,0.44,0.29,0.135.58,0.275,0.87,0.417,0.21,0.1.42,0.212,0.63,0.321-5.31,2.118-8.6,4.713-12.29,9.493a3.624,3.624,0,0,0-.76,2.331,3.762,3.762,0,0,0-1.41-1.75c-1.28-.841-2.97-0.781-5.14.184l-0.39.044c-2.79.309-4.32,0.481-4.46,3.5a4.318,4.318,0,0,0,2.09,3.838,3.942,3.942,0,0,0,1.06.441,1.53,1.53,0,0,0,.19.4l0.56,0.77,0.89-.148a9.863,9.863,0,0,1,1.84-.144,3.4,3.4,0,0,0,.32,1.8,3.092,3.092,0,0,0,1.87,1.6,1.04,1.04,0,0,1,.95.8,4.426,4.426,0,0,0,2.78,3.1,4.181,4.181,0,0,0,3.85-.739c0.72-.538,1.12-0.426,2.68.325a12.335,12.335,0,0,0,3.92,1.31,0.807,0.807,0,0,1,.47.169,21.465,21.465,0,0,1,2.83,4.069c1.29,2.175,2.5,4.231,4.58,5.308,1.63,0.844-.19,5.613-1.07,7.9-0.17.462-.34,0.892-0.48,1.276a21.935,21.935,0,0,0-4.65,5.25,24.1,24.1,0,0,1-4.08,4.786,23.344,23.344,0,0,1-7.66,4.659,0.742,0.742,0,0,1-.83-0.225,0.692,0.692,0,0,1-.08-0.808c2.74-4.883,5.91-11.77,1.81-15.15-4.02-3.313-5.53-8.122-3.84-12.251a3.664,3.664,0,0,0-1.86-4.643,5.19,5.19,0,0,1-.33-1.519,8.625,8.625,0,0,0-1.21-3.889,4.2,4.2,0,0,0-1.46-1.216,15.589,15.589,0,0,0-4.89-1.289,16.7,16.7,0,0,1-3.65-.815,9.3,9.3,0,0,1-3.39-2.471l-1.62,2.331a11.577,11.577,0,0,0,4.02,2.726,18.721,18.721,0,0,0,4.24.967,13.178,13.178,0,0,1,4.07,1.04,1.5,1.5,0,0,1,.38.289,6.255,6.255,0,0,1,.76,2.693c0.18,1.336.38,2.85,1.74,3.564a1.012,1.012,0,0,1,.63,1.19c-2.16,5.27-.34,11.324,4.64,15.425,1.27,1.051,1.88,3.93-2.46,11.672a3.432,3.432,0,0,0,.38,3.942,3.518,3.518,0,0,0,2.69,1.251,3.6,3.6,0,0,0,1.19-.206,26.8,26.8,0,0,0,13.08-10.468,18.963,18.963,0,0,1,4.3-4.81,1.629,1.629,0,0,0,.59-0.794c0.15-.438.35-0.952,0.57-1.519,1.42-3.727,3.58-9.361-.24-11.342-1.38-.713-2.35-2.354-3.47-4.255a24.573,24.573,0,0,0-3.21-4.577,3.535,3.535,0,0,0-2.13-1,9.8,9.8,0,0,1-3.07-1.058c-1.52-.734-3.42-1.647-5.55-0.047a1.472,1.472,0,0,1-1.31.329,1.706,1.706,0,0,1-.99-1.243,3.691,3.691,0,0,0-2.8-2.67,0.315,0.315,0,0,1-.19-0.181,0.534,0.534,0,0,1-.01-0.449,1.942,1.942,0,0,0-.3-1.975,3.339,3.339,0,0,0-2.63-.923,1.348,1.348,0,0,0-.37-0.651l-0.84-.768-0.95.556a0.756,0.756,0,0,1-.82-0.055,1.535,1.535,0,0,1-.75-1.343,4.087,4.087,0,0,1,.05-0.6,16.226,16.226,0,0,1,1.94-.278l0.84-.1,0.21-.094c1.23-.574,2.23-0.748,2.65-0.476,0.17,0.113.72,0.649,0.66,2.871l-0.04,1.227,1.22,0.18a3.659,3.659,0,0,0,3.49-.908c0.76-.866.89-2.15,0.4-3.818a0.907,0.907,0,0,1,.16-0.756c3.84-4.977,7.07-7.268,13.2-9.378a38.8,38.8,0,1,1-59.21,25.453l-2.15-3.1a40.845,40.845,0,0,0-1.28,10.2A41.635,41.635,0,1,0,1193.7,921.862Zm-53.28-9.625a7.377,7.377,0,1,0,7.41,7.376A7.4,7.4,0,0,0,1140.42,912.237Zm4.58,7.376a4.575,4.575,0,1,1-4.58-4.558A4.571,4.571,0,0,1,1145,919.613Zm9.08-13.6a19.621,19.621,0,0,0-27.67,0c-6.83,6.8-7.69,19.582-1.85,27.336l15.69,22.56,15.65-22.517C1161.76,925.605,1160.91,912.811,1154.08,906.01Zm-13.83,44.944L1126.86,931.7c-5.08-6.742-4.35-17.815,1.55-23.7a16.784,16.784,0,0,1,23.67,0c5.9,5.881,6.62,16.967,1.53,23.726Z" transform="translate(-1120.69 -900.313)"/>
</svg>
