<?xml version="1.0" encoding="utf-8"?>
<!-- Generator: Adobe Illustrator 19.0.0, SVG Export Plug-In . SVG Version: 6.00 Build 0)  -->
<svg version="1.1" id="Шар_1" xmlns="http://www.w3.org/2000/svg" xmlns:xlink="http://www.w3.org/1999/xlink" x="0px" y="0px"
	 viewBox="-295 387 20 20" style="enable-background:new -295 387 20 20;" xml:space="preserve">
<style type="text/css">
	.st0{fill:#1B503E;}
</style>
<path class="st0" d="M-285,388.8c2.7,0,3,0,4,0.1c0.6,0,1.3,0.1,1.8,0.3c0.9,0.3,1.6,1,1.9,1.9c0.2,0.6,0.3,1.2,0.3,1.9
	c0.1,1.1,0.1,1.4,0.1,4c0,2.7,0,3-0.1,4c0,0.6-0.1,1.3-0.3,1.9c-0.3,0.9-1,1.6-1.9,1.9c-0.6,0.2-1.2,0.3-1.8,0.3
	c-1.1,0-1.4,0.1-4,0.1s-3,0-4-0.1c-0.6,0-1.3-0.1-1.8-0.3c-0.9-0.3-1.6-1-1.9-1.9c-0.2-0.6-0.3-1.2-0.3-1.9c-0.1-1.1-0.1-1.4-0.1-4
	s0-3,0.1-4c0-0.6,0.1-1.3,0.3-1.9c0.3-0.9,1-1.6,1.9-1.9c0.6-0.2,1.2-0.3,1.8-0.3C-288,388.8-287.7,388.8-285,388.8 M-285,387
	c-2.7,0-3.1,0-4.1,0.1c-0.8,0-1.7,0.2-2.4,0.5c-1.3,0.5-2.4,1.6-2.9,2.9c-0.3,0.8-0.5,1.6-0.5,2.4c-0.1,1.1-0.1,1.4-0.1,4.1
	s0,3.1,0.1,4.1c0,0.8,0.2,1.7,0.5,2.4c0.5,1.3,1.6,2.4,2.9,2.9c0.8,0.3,1.6,0.4,2.4,0.5c1.1,0,1.4,0.1,4.1,0.1s3.1,0,4.1-0.1
	c0.8,0,1.7-0.2,2.4-0.5c1.3-0.5,2.4-1.6,2.9-2.9c0.3-0.8,0.4-1.6,0.5-2.4c0.1-1.1,0.1-1.4,0.1-4.1c0-2.7,0-3.1-0.1-4.1
	c0-0.8-0.2-1.6-0.5-2.4c-0.5-1.3-1.6-2.4-2.9-2.9c-0.8-0.3-1.6-0.4-2.4-0.5C-281.9,387-282.3,387-285,387L-285,387L-285,387z
	 M-285,391.9c-2.8,0-5.1,2.3-5.1,5.1s2.3,5.1,5.1,5.1c2.8,0,5.1-2.3,5.1-5.1c0,0,0,0,0,0C-279.9,394.2-282.2,391.9-285,391.9z
	 M-285,400.3c-1.8,0-3.3-1.5-3.3-3.3s1.5-3.3,3.3-3.3c1.8,0,3.3,1.5,3.3,3.3c0,0,0,0,0,0C-281.7,398.8-283.2,400.3-285,400.3
	C-285,400.3-285,400.3-285,400.3z M-278.5,391.7c0,0.7-0.5,1.2-1.2,1.2c-0.7,0-1.2-0.5-1.2-1.2c0-0.7,0.5-1.2,1.2-1.2l0,0
	C-279,390.5-278.5,391-278.5,391.7z"/>
</svg>
