<svg xmlns="http://www.w3.org/2000/svg" width="20" height="20" viewBox="0 0 20 20">
  <defs>
    <style>
      .cls-1 {
        fill: #c3d0d1;
        fill-rule: evenodd;
      }
    </style>
  </defs>
  <path class="cls-1" d="M1235,14.806c2.67,0,2.98.01,4.04,0.058a5.511,5.511,0,0,1,1.85.344,3.32,3.32,0,0,1,1.9,1.9,5.363,5.363,0,0,1,.34,1.855c0.05,1.054.06,1.37,0.06,4.039s-0.01,2.984-.06,4.038a5.365,5.365,0,0,1-.34,1.856,3.322,3.322,0,0,1-1.9,1.9,5.5,5.5,0,0,1-1.85.344c-1.06.048-1.37,0.058-4.04,0.058s-2.98-.01-4.04-0.058a5.5,5.5,0,0,1-1.85-.344,3.319,3.319,0,0,1-1.9-1.9,5.365,5.365,0,0,1-.34-1.856c-0.05-1.054-.06-1.37-0.06-4.038s0.01-2.985.06-4.039a5.363,5.363,0,0,1,.34-1.855,3.32,3.32,0,0,1,1.9-1.9,5.511,5.511,0,0,1,1.85-.344c1.06-.048,1.37-0.058,4.04-0.058m0-1.8c-2.71,0-3.05.012-4.12,0.06a7.415,7.415,0,0,0-2.43.465,5.1,5.1,0,0,0-2.92,2.923,7.062,7.062,0,0,0-.46,2.426c-0.05,1.066-.06,1.406-0.06,4.121s0.01,3.054.06,4.12a7.063,7.063,0,0,0,.46,2.426,5.1,5.1,0,0,0,2.92,2.923,7.4,7.4,0,0,0,2.43.465c1.07,0.049,1.41.06,4.12,0.06s3.05-.012,4.12-0.06a7.4,7.4,0,0,0,2.43-.465,5.1,5.1,0,0,0,2.92-2.923,7.31,7.31,0,0,0,.46-2.426c0.05-1.066.06-1.406,0.06-4.12s-0.01-3.055-.06-4.12a7.308,7.308,0,0,0-.46-2.426,5.1,5.1,0,0,0-2.92-2.923,7.415,7.415,0,0,0-2.43-.465c-1.07-.048-1.41-0.06-4.12-0.06h0Zm0,4.862A5.132,5.132,0,1,0,1240.13,23,5.133,5.133,0,0,0,1235,17.868Zm0,8.463A3.331,3.331,0,1,1,1238.33,23,3.33,3.33,0,0,1,1235,26.331Zm6.53-8.666a1.2,1.2,0,1,1-1.2-1.2A1.2,1.2,0,0,1,1241.53,17.665Z" transform="translate(-1225 -13)"/>
</svg>
