<svg xmlns="http://www.w3.org/2000/svg" width="16.031" height="16" viewBox="0 0 16.031 16">
  <defs>
    <style>
      .cls-1 {
        fill: #c3d0d1;
        fill-rule: evenodd;
      }
    </style>
  </defs>
  <path id="Forma_1" data-name="Forma 1" class="cls-1" d="M252.805,27.5l-0.08-.24a2.249,2.249,0,0,0-1.376-1.3l-2.1-.574a2.066,2.066,0,0,0-1.8.47l-0.761.76A8.072,8.072,0,0,1,241,20.941l0.762-.76a2.056,2.056,0,0,0,.471-1.8l-0.574-2.1a2.246,2.246,0,0,0-1.3-1.373l-0.24-.08a1.912,1.912,0,0,0-1.779.419L237.2,16.384a2.123,2.123,0,0,0-.333.782,13.431,13.431,0,0,0,13.562,13.575,2.116,2.116,0,0,0,.817-0.33l1.139-1.137A1.9,1.9,0,0,0,252.805,27.5Z" transform="translate(-236.875 -14.75)"/>
</svg>
