<svg xmlns="http://www.w3.org/2000/svg" width="19.84" height="16" viewBox="0 0 19.84 16">
  <defs>
    <style>
      .cls-1 {
        fill: #c3d0d1;
        fill-rule: evenodd;
      }
    </style>
  </defs>
  <path class="cls-1" d="M1346.26,16.4a8.237,8.237,0,0,1-2.34.641,4.054,4.054,0,0,0,1.79-2.237,8.139,8.139,0,0,1-2.58.979,4.087,4.087,0,0,0-7.05,2.762,4.022,4.022,0,0,0,.11.921,11.614,11.614,0,0,1-8.4-4.22,4.026,4.026,0,0,0,1.26,5.393,4.151,4.151,0,0,1-1.84-.5v0.048a4.045,4.045,0,0,0,3.26,3.959,4.054,4.054,0,0,1-1.07.145,4.221,4.221,0,0,1-.76-0.074,4.069,4.069,0,0,0,3.8,2.8,8.226,8.226,0,0,1-5.06,1.728,8.093,8.093,0,0,1-.97-0.057,11.641,11.641,0,0,0,6.24,1.811,11.45,11.45,0,0,0,11.59-11.485c0-.175,0-0.349-0.01-0.521a7.925,7.925,0,0,0,2.03-2.09" transform="translate(-1326.41 -14.5)"/>
</svg>
