<?xml version="1.0" encoding="utf-8"?>
<!-- Generator: Adobe Illustrator 19.0.0, SVG Export Plug-In . SVG Version: 6.00 Build 0)  -->
<svg version="1.1" id="Шар_1" xmlns="http://www.w3.org/2000/svg" xmlns:xlink="http://www.w3.org/1999/xlink" x="0px" y="0px"
	 viewBox="-295 389 19.8 16" style="enable-background:new -295 389 19.8 16;" xml:space="preserve">
<style type="text/css">
	.st0{fill:#1B503E;}
</style>
<path class="st0" d="M-275.2,390.9c-0.7,0.3-1.5,0.5-2.3,0.6c0.8-0.5,1.5-1.3,1.8-2.2c-0.8,0.5-1.7,0.8-2.6,1
	c-1.6-1.6-4.1-1.7-5.8-0.1c-0.8,0.8-1.3,1.8-1.3,2.9c0,0.3,0,0.6,0.1,0.9c-3.3-0.2-6.3-1.7-8.4-4.2c-1.1,1.8-0.5,4.2,1.3,5.4
	c-0.6,0-1.3-0.2-1.8-0.5v0c0,1.9,1.4,3.6,3.3,4c-0.3,0.1-0.7,0.1-1.1,0.1c-0.3,0-0.5,0-0.8-0.1c0.5,1.6,2.1,2.8,3.8,2.8
	c-1.4,1.1-3.2,1.7-5.1,1.7c-0.3,0-0.6,0-1-0.1c1.9,1.2,4,1.8,6.2,1.8c6.3,0.1,11.5-5,11.6-11.3c0-0.1,0-0.1,0-0.2c0-0.2,0-0.3,0-0.5
	C-276.4,392.4-275.7,391.7-275.2,390.9"/>
</svg>
