<svg xmlns="http://www.w3.org/2000/svg" width="107.25" height="71.625" viewBox="0 0 107.25 71.625">
  <defs>
    <style>
      .cls-1 {
        fill: #1b503e;
        fill-rule: evenodd;
      }
    </style>
  </defs>
  <path class="cls-1" d="M738.674,989.459a5.956,5.956,0,0,1,3.158.8,8.559,8.559,0,0,0,4.3,1.069h0.033a8.562,8.562,0,0,0,4.286-1.07,6.671,6.671,0,0,1,6.324,0,9.221,9.221,0,0,0,8.621,0,6.673,6.673,0,0,1,6.327,0,9.231,9.231,0,0,0,8.626,0,6.675,6.675,0,0,1,6.328,0,9.229,9.229,0,0,0,8.625,0,6.673,6.673,0,0,1,6.327,0,9.23,9.23,0,0,0,8.627,0,6.693,6.693,0,0,1,6.335,0,9.217,9.217,0,0,0,8.621,0,6.669,6.669,0,0,1,6.323,0,9.223,9.223,0,0,0,8.622,0,5.96,5.96,0,0,1,3.162-.8,1.284,1.284,0,1,0,0-2.568,8.577,8.577,0,0,0-4.312,1.069,5.966,5.966,0,0,1-3.163.8,6.219,6.219,0,0,1-1.888-.25l-0.509-.158L844.5,964.44a1.284,1.284,0,0,0-1.167-1.822h-6.191V934.027a1.286,1.286,0,0,0-1.285-1.284H824.64a1.286,1.286,0,0,0-1.285,1.284v28.591h-17.4a1.293,1.293,0,0,0-.908.376l-7.1,7.093H784.807V953.31l25.465-20.671v13.175H805.95a1.285,1.285,0,0,0-1.285,1.283v7.469a1.286,1.286,0,0,0,1.285,1.284h11.214a1.286,1.286,0,0,0,1.285-1.284V947.1a1.285,1.285,0,0,0-1.285-1.283h-4.322V930.553l1.394-1.131a1.29,1.29,0,0,0,.247-1.727l-2.959-4.278a1.28,1.28,0,0,0-1.753-.35l-26.627,17.145H772.308a1.286,1.286,0,0,0-1.285,1.284v11.2a1.286,1.286,0,0,0,1.285,1.284h2.453v16.1h-8.644V941.5a1.286,1.286,0,0,0-1.285-1.284H760.51V925.975H766.7a1.284,1.284,0,1,0,0-2.568H760.51v-2.45a1.285,1.285,0,0,0-2.57,0v2.45h-2.453a1.284,1.284,0,1,0,0,2.568h2.453v14.237H742.4a1.286,1.286,0,0,0-1.285,1.284v11.2a1.286,1.286,0,0,0,1.285,1.284h4.322v10.5h-8.061a1.284,1.284,0,0,0-1.228,1.661l6.923,22.477-0.961-.458c-0.135-.064-0.273-0.133-0.417-0.205a8.559,8.559,0,0,0-4.308-1.069A1.284,1.284,0,1,0,738.674,989.459Zm77.205-41.078v4.9h-8.644v-4.9h8.644ZM784.807,942.2l25.31-16.3,1.576,2.279L784.807,950V942.2Zm41.118-6.884h8.644v4.9h-8.644v-4.9Zm0,7.468h8.644v4.9h-8.644v-4.9Zm0,7.469h8.644v4.9h-8.644v-4.9Zm0,7.469h8.644v4.9h-8.644v-4.9Zm-52.332-6.3v-8.636h8.644v8.636h-8.644Zm8.644,2.568v16.1h-4.906v-16.1h4.906Zm-38.549-2.568v-8.636h19.859v8.636H743.688Zm19.859,2.568v16.1h-3.79l-5.231-5.225a1.273,1.273,0,0,0-.908-0.376H749.3v-10.5h14.251Zm-23.142,13.07h12.681l5.23,5.225a1.277,1.277,0,0,0,.909.376h39.249a1.293,1.293,0,0,0,.908-0.375l7.1-7.093h34.839l-10.205,22.09-0.38-.1a9.09,9.09,0,0,0-2.36-.283,8.58,8.58,0,0,0-4.312,1.069l-0.209-.418h0l0.209,0.418a6.66,6.66,0,0,1-6.322,0,9.249,9.249,0,0,0-8.633,0,6.673,6.673,0,0,1-6.329,0,9.233,9.233,0,0,0-8.625,0,6.67,6.67,0,0,1-6.327,0,9.235,9.235,0,0,0-8.626,0,6.671,6.671,0,0,1-6.328,0,9.233,9.233,0,0,0-8.625,0,6.662,6.662,0,0,1-6.323,0,9.227,9.227,0,0,0-8.622,0,6.58,6.58,0,0,1-1.813.683l-0.412.08Zm16.951-18.205h1.869a1.751,1.751,0,1,0,0-3.5h-1.869A1.751,1.751,0,1,0,757.356,948.848Zm1.869,0.467h-1.869a2.218,2.218,0,1,1,0-4.435h1.869A2.218,2.218,0,1,1,759.225,949.315Zm-1.869-3.5a1.284,1.284,0,1,0,0,2.567h1.869a1.284,1.284,0,1,0,0-2.567h-1.869Zm-7.476,3.034a1.751,1.751,0,1,0,0-3.5h-1.869a1.751,1.751,0,1,0,0,3.5h1.869Zm0,0.467h-1.869a2.218,2.218,0,1,1,0-4.435h1.869A2.218,2.218,0,1,1,749.88,949.315Zm-1.869-3.5a1.284,1.284,0,1,0,0,2.567h1.869a1.284,1.284,0,1,0,0-2.567h-1.869Zm16.821,31.275h-1.869a1.751,1.751,0,1,0,0,3.5h1.869A1.751,1.751,0,1,0,764.832,977.089Zm0,3.968h-1.869a2.218,2.218,0,1,1,0-4.435h1.869A2.218,2.218,0,1,1,764.832,981.057Zm-1.869-3.5a1.284,1.284,0,1,0,0,2.567h1.869a1.284,1.284,0,1,0,0-2.567h-1.869Zm9.345-.467h-1.869a1.751,1.751,0,1,0,0,3.5h1.869A1.751,1.751,0,1,0,772.308,977.089Zm0,3.968h-1.869a2.218,2.218,0,1,1,0-4.435h1.869A2.218,2.218,0,1,1,772.308,981.057Zm-1.869-3.5a1.284,1.284,0,1,0,0,2.567h1.869a1.284,1.284,0,1,0,0-2.567h-1.869Zm9.345-.467h-1.869a1.751,1.751,0,1,0,0,3.5h1.869A1.751,1.751,0,1,0,779.784,977.089Zm0,3.968h-1.869a2.218,2.218,0,1,1,0-4.435h1.869A2.218,2.218,0,1,1,779.784,981.057Zm-1.869-3.5a1.284,1.284,0,1,0,0,2.567h1.869a1.284,1.284,0,1,0,0-2.567h-1.869Zm9.345-.467h-1.869a1.751,1.751,0,1,0,0,3.5h1.869A1.751,1.751,0,1,0,787.26,977.089Zm0,3.968h-1.869a2.218,2.218,0,1,1,0-4.435h1.869A2.218,2.218,0,1,1,787.26,981.057Zm-1.869-3.5a1.284,1.284,0,1,0,0,2.567h1.869a1.284,1.284,0,1,0,0-2.567h-1.869Zm9.345-.467h-1.869a1.751,1.751,0,1,0,0,3.5h1.869A1.751,1.751,0,1,0,794.736,977.089Zm0,3.968h-1.869a2.218,2.218,0,1,1,0-4.435h1.869A2.218,2.218,0,1,1,794.736,981.057Zm-1.869-3.5a1.284,1.284,0,1,0,0,2.567h1.869a1.284,1.284,0,1,0,0-2.567h-1.869Z" transform="translate(-737.375 -919.688)"/>
</svg>
