<?xml version="1.0" encoding="utf-8"?>
<!-- Generator: Adobe Illustrator 19.0.0, SVG Export Plug-In . SVG Version: 6.00 Build 0)  -->
<svg version="1.1" id="Шар_1" xmlns="http://www.w3.org/2000/svg" xmlns:xlink="http://www.w3.org/1999/xlink" x="0px" y="0px"
	 viewBox="3 -8.4 29.1 31.4" style="enable-background:new 3 -8.4 29.1 31.4;" xml:space="preserve">
<style type="text/css">
	.st0{fill:#FFFF00;}
</style>
<path class="st0" d="M14.5-8.4C14.5-8.4,14.5-8.4,14.5-8.4C8.1-8.4,3-3.2,3,3.1c0,0,0,0,0,0c0,6.4,5.2,11.5,11.6,11.5
	c6.4,0,11.5-5.2,11.5-11.6C26-3.3,20.9-8.4,14.5-8.4z M14.5,10.8c-4.2,0-7.7-3.4-7.7-7.7c0-4.2,3.4-7.7,7.7-7.7c0,0,0,0,0,0
	c4.2,0,7.7,3.4,7.7,7.7S18.7,10.8,14.5,10.8z"/>
<polygon class="st0" points="20,13.3 22.8,10.7 32,20.5 29.2,23.1 "/>
<rect x="13.3" y="-2.2" class="st0" width="2.6" height="10.3"/>
<rect x="9.5" y="1.6" class="st0" width="10.3" height="2.6"/>
</svg>
